<?xml version="1.0" standalone="no"?>
<!DOCTYPE svg PUBLIC "-//W3C//DTD SVG 20010904//EN"
 "http://www.w3.org/TR/2001/REC-SVG-20010904/DTD/svg10.dtd">
<svg version="1.0" xmlns="http://www.w3.org/2000/svg"
 width="512.000000pt" height="512.000000pt" viewBox="0 0 512.000000 512.000000"
 preserveAspectRatio="xMidYMid meet">
<metadata>
Created by potrace 1.14, written by Peter Selinger 2001-2017
</metadata>
<g transform="translate(0.000000,512.000000) scale(0.100000,-0.100000)"
fill="#000000" stroke="none">
<path d="M0 2560 l0 -2560 2560 0 2560 0 0 2560 0 2560 -2560 0 -2560 0 0
-2560z m1290 836 c40 -10 63 -23 83 -48 16 -18 98 -166 184 -328 85 -162 162
-303 170 -312 21 -24 58 -23 84 3 11 11 82 144 157 295 152 308 183 352 265
381 74 26 336 26 418 1 80 -25 119 -71 119 -138 0 -47 -3 -53 -50 -97 -58 -54
-75 -92 -89 -197 -27 -194 -22 -652 9 -880 10 -70 11 -72 75 -132 54 -50 65
-66 65 -93 0 -71 -51 -115 -165 -142 -67 -15 -412 -15 -494 0 -117 22 -171 63
-171 130 0 29 9 43 54 85 29 28 59 67 66 86 8 22 15 106 18 220 4 175 3 187
-16 210 -20 24 -22 24 -48 10 -35 -19 -76 -94 -165 -300 -97 -225 -157 -351
-176 -372 -20 -22 -66 -23 -88 -2 -25 25 -98 177 -211 438 -57 132 -112 248
-121 258 -24 26 -52 22 -64 -9 -16 -41 -18 -450 -2 -485 7 -16 34 -40 62 -55
75 -42 92 -97 46 -151 -42 -50 -100 -64 -276 -70 -217 -6 -304 22 -325 102
-12 48 3 73 64 108 38 23 63 45 74 68 24 50 36 180 50 542 13 336 5 486 -27
548 -8 16 -39 45 -69 64 -29 19 -61 45 -70 57 -38 54 -5 138 67 169 36 16 97
30 187 44 67 10 260 5 310 -8z m3009 -21 c42 -38 94 -135 110 -205 15 -64 13
-165 -3 -204 -20 -49 -60 -76 -114 -76 -48 0 -44 -3 -166 128 -27 29 -65 61
-85 71 -48 25 -158 41 -280 41 -133 0 -145 -9 -166 -134 -8 -49 -15 -121 -15
-161 0 -97 14 -110 115 -110 90 0 108 14 131 97 22 76 60 118 107 118 44 0 89
-36 110 -88 34 -85 47 -287 27 -427 -15 -100 -37 -160 -75 -200 -28 -30 -39
-35 -79 -35 -42 0 -48 3 -66 33 -11 17 -20 46 -20 62 0 51 -19 100 -47 127
-33 31 -98 50 -142 42 -53 -11 -61 -33 -61 -178 0 -241 25 -305 124 -320 62
-10 96 -43 96 -97 0 -122 -78 -148 -470 -156 -339 -7 -432 7 -474 72 -48 73
-25 148 56 186 59 27 85 58 99 115 15 63 32 573 25 774 -8 256 -19 285 -118
336 -51 26 -68 48 -68 89 0 44 27 82 76 105 45 22 50 22 237 14 244 -11 902
-9 987 4 103 15 107 14 149 -23z"/>
</g>
</svg>
